<svg class="keyboard__svg" xmlns="http://www.w3.org/2000/svg">
  <path opacity=".3" fill-rule="evenodd" clip-rule="evenodd" d="M25.693 0h-24.153c-1.104 0-1.527.422-1.527 1.527v8.961c0 1.105.423 1.527 1.527 1.527h24.153c1.104 0 1.307-.422 1.307-1.527v-8.961c0-1.105-.202-1.527-1.307-1.527zm-2.672 2.061h1.935v1.934h-1.935v-1.934zm-6 0h1.935v1.934h-1.935v-1.934zm2.935 3v1.934h-1.935v-1.934h1.935zm-5.935-3h1.935v1.934h-1.935v-1.934zm2.935 3v1.934h-1.935v-1.934h1.935zm-5.935-3h1.935v1.934h-1.935v-1.934zm2.935 3v1.934h-1.935v-1.934h1.935zm-5.935-3h1.935v1.934h-1.935v-1.934zm2.935 3v1.934h-1.935v-1.934h1.935zm-5.935-3h1.935v1.934h-1.935v-1.934zm-3 0h1.935v1.934h-1.935v-1.934zm0 3h2.994v1.934h-2.994v-1.934zm3.95 4.933h-3.978v-1.933h3.978v1.933zm.05-4.933h1.935v1.934h-1.935v-1.934zm13.95 4.933h-12.963v-1.933h12.963v1.933zm.05-7.933h1.935v1.934h-1.935v-1.934zm4.95 7.933h-3.978v-1.933h3.978v1.933zm.029-2.999h-3.979v-1.934h3.979v1.934z"/>
</svg>
