<svg class="traffic__svg" xmlns="http://www.w3.org/2000/svg" viewBox="0 0 33 30">
  <g fill="none" fill-rule="evenodd">
    <path d="M28.833 17.404c.027-.37 0-1.506 0-1.882 0-8.254-6.681-14.944-14.922-14.944-4.065 0-7.716 1.66-10.44 4.264C1.024 7.18.001 10.58.001 12.962c0 3.046 1.89 4.442 3.465 4.442h25.367z" fill="#5f9034"/>
    <path d="M33 15c0 7.965-6.458 14.422-14.422 14.422-7.965 0-14.423-6.457-14.423-14.422C4.155 7.034 10.613.578 18.577.578 26.543.578 33 7.034 33 15z" fill="#76b342"/>
    <path d="M18.323.58l.254-.002C26.542.578 33 7.034 33 15c0 .572-.034 1.137-.099 1.692-2.3-.014-4.073-.994-4.653-3.75-1.092-5.193-4.832-9.635-9.904-11.474a15.41 15.41 0 0 0-2.451-.642h.002a15.791 15.791 0 0 0-2.51-.246h4.938z" fill="#333"/>
  </g>
</svg>
