<svg class="voice__svg" xmlns="http://www.w3.org/2000/svg" viewBox="0 0 18 18">
  <path d="M9 11.25c1.242 0 2.25-1.008 2.25-2.25v-3.938c0-1.242-1.008-2.25-2.25-2.25s-2.25 1.008-2.25 2.25v3.938c0 1.242 1.008 2.25 2.25 2.25zm4.5-2.25h-1.125c0 .848-.32 1.668-.898 2.289-.637.691-1.535 1.086-2.477 1.086-.941 0-1.84-.395-2.477-1.082-.578-.625-.898-1.441-.898-2.293h-1.125c0 1.137.426 2.223 1.195 3.055.723.777 1.691 1.273 2.742 1.406v1.727h1.125v-1.727c1.051-.133 2.02-.629 2.742-1.406.77-.832 1.195-1.922 1.195-3.055zm0 0" fill-rule="evenodd"/>
</svg>
